<svg width="173" height="37" viewBox="0 0 173 37" fill="none" xmlns="http://www.w3.org/2000/svg">
<path d="M16.4738 18.3747C19.4029 18.3747 21.7775 16.0001 21.7775 13.071C21.7775 10.1419 19.4029 7.76735 16.4738 7.76735C13.5447 7.76735 11.1702 10.1419 11.1702 13.071C11.1702 16.0001 13.5447 18.3747 16.4738 18.3747Z" fill="#FD5E0A"/>
<path d="M20.5403 21.4508C20.1822 21.0385 19.7394 20.7082 19.2421 20.4825C18.7448 20.2567 18.2048 20.1408 17.6587 20.1425H15.2897C14.7439 20.1419 14.2043 20.2589 13.7077 20.4854C13.2111 20.712 12.7691 21.0428 12.4118 21.4555C12.0545 21.8681 11.7903 22.3529 11.6371 22.8768C11.4839 23.4007 11.4454 23.9514 11.5241 24.4915L12.7086 32.7829C12.8336 33.6928 13.2838 34.5267 13.976 35.1304C14.6683 35.734 15.5557 36.0666 16.4742 36.0666C17.3926 36.0666 18.28 35.734 18.9723 35.1304C19.6645 34.5267 20.1148 33.6928 20.2398 32.7829L21.4242 24.4915C21.5042 23.9509 21.4666 23.3995 21.314 22.8747C21.1615 22.35 20.8976 21.8643 20.5403 21.4508Z" fill="#FD5E0A"/>
<path d="M22.7323 21.0972C22.3848 21.0958 22.0454 20.9919 21.7566 20.7987C21.4677 20.6054 21.2422 20.3313 21.1083 20.0106C20.9744 19.69 20.9379 19.3369 21.0035 18.9956C21.0691 18.6544 21.2339 18.34 21.4771 18.0918C22.1373 17.4347 22.6611 16.6537 23.0185 15.7936C23.376 14.9335 23.56 14.0113 23.56 13.0798C23.56 12.1484 23.376 11.2262 23.0185 10.3661C22.6611 9.50599 22.1373 8.72497 21.4771 8.06789C21.1466 7.735 20.9618 7.28442 20.9635 6.81529C20.9651 6.34615 21.1531 5.89689 21.486 5.56634C21.8189 5.23579 22.2694 5.05101 22.7386 5.05267C23.2077 5.05433 23.657 5.24228 23.9875 5.57518C24.9737 6.56031 25.7561 7.73018 26.2899 9.01788C26.8237 10.3056 27.0985 11.6859 27.0985 13.0798C27.0985 14.4738 26.8237 15.8541 26.2899 17.1418C25.7561 18.4295 24.9737 19.5994 23.9875 20.5845C23.8223 20.7484 23.6264 20.878 23.411 20.966C23.1956 21.0539 22.965 21.0985 22.7323 21.0972Z" fill="#FD5E0A"/>
<path d="M10.2154 21.0972C9.98152 21.0962 9.75014 21.0488 9.53468 20.9578C9.31922 20.8668 9.12396 20.7339 8.96023 20.5668C7.974 19.5817 7.19162 18.4118 6.65781 17.1241C6.12401 15.8364 5.84925 14.4561 5.84925 13.0622C5.84925 11.6682 6.12401 10.2879 6.65781 9.0002C7.19162 7.71249 7.974 6.54263 8.96023 5.5575C9.1239 5.39266 9.31844 5.26168 9.53274 5.17203C9.74703 5.08238 9.97689 5.03581 10.2092 5.03499C10.4415 5.03417 10.6716 5.07911 10.8866 5.16725C11.1015 5.25538 11.2969 5.38499 11.4618 5.54866C11.6266 5.71233 11.7576 5.90687 11.8473 6.12117C11.9369 6.33546 11.9835 6.56532 11.9843 6.79761C11.9851 7.0299 11.9402 7.26008 11.852 7.475C11.7639 7.68992 11.6343 7.88538 11.4706 8.05021C10.8105 8.70729 10.2867 9.48831 9.92921 10.3484C9.57178 11.2085 9.38777 12.1307 9.38777 13.0622C9.38777 13.9936 9.57178 14.9158 9.92921 15.7759C10.2867 16.636 10.8105 17.417 11.4706 18.0741C11.7139 18.3223 11.8786 18.6367 11.9442 18.978C12.0098 19.3192 11.9734 19.6723 11.8394 19.993C11.7055 20.3136 11.48 20.5877 11.1912 20.781C10.9023 20.9742 10.563 21.0781 10.2154 21.0795V21.0972Z" fill="#FD5E0A"/>
<path d="M26.4801 24.8451C26.1539 24.8163 25.842 24.6975 25.5794 24.5019C25.3167 24.3063 25.1136 24.0415 24.9926 23.7372C24.8716 23.4329 24.8375 23.1009 24.8941 22.7784C24.9508 22.4558 25.0959 22.1553 25.3133 21.9104C26.4893 20.7582 27.4235 19.3829 28.0613 17.8651C28.6991 16.3472 29.0276 14.7174 29.0276 13.071C29.0276 11.4246 28.6991 9.79478 28.0613 8.27695C27.4235 6.75912 26.4893 5.38382 25.3133 4.23159C24.9827 3.89869 24.798 3.44811 24.7996 2.97898C24.8013 2.50985 24.9892 2.06059 25.3221 1.73003C25.655 1.39948 26.1056 1.21471 26.5747 1.21636C27.0439 1.21802 27.4931 1.40597 27.8237 1.73887C29.3017 3.21641 30.4742 4.97065 31.2741 6.90139C32.074 8.83214 32.4857 10.9016 32.4857 12.9914C32.4857 15.0813 32.074 17.1508 31.2741 19.0815C30.4742 21.0123 29.3017 22.7665 27.8237 24.244C27.6561 24.4349 27.4493 24.5873 27.2174 24.691C26.9856 24.7948 26.7341 24.8473 26.4801 24.8451Z" fill="#FD5E0A"/>
<path d="M6.46802 24.8451C6.23536 24.8465 6.00472 24.8019 5.78932 24.7139C5.57393 24.6259 5.37802 24.4963 5.21283 24.3324C3.73481 22.8549 2.56235 21.1006 1.76243 19.1699C0.962502 17.2392 0.550781 15.1697 0.550781 13.0798C0.550781 10.99 0.962502 8.92053 1.76243 6.98979C2.56235 5.05904 3.73481 3.30481 5.21283 1.82727C5.34711 1.5912 5.53397 1.38925 5.75891 1.23707C5.98385 1.08489 6.24084 0.986589 6.50991 0.949783C6.77899 0.912976 7.05293 0.938658 7.31048 1.02484C7.56803 1.11101 7.80226 1.25537 7.995 1.4467C8.18774 1.63804 8.33381 1.8712 8.42187 2.12811C8.50993 2.38502 8.53762 2.65877 8.50279 2.92811C8.46795 3.19745 8.37153 3.45514 8.22101 3.6812C8.07048 3.90725 7.8699 4.09559 7.63483 4.23159C6.45884 5.38382 5.52458 6.75913 4.88679 8.27695C4.24899 9.79478 3.92047 11.4246 3.92047 13.071C3.92047 14.7174 4.24899 16.3472 4.88679 17.8651C5.52458 19.3829 6.45884 20.7582 7.63483 21.9104C7.88415 22.1577 8.05419 22.4736 8.12326 22.8179C8.19233 23.1622 8.1573 23.5193 8.02265 23.8436C7.88799 24.1679 7.65981 24.4447 7.36719 24.6389C7.07457 24.833 6.73077 24.9355 6.37963 24.9335L6.46802 24.8451Z" fill="#FD5E0A"/>
<path d="M40.4858 30.6879V7.10363H49.3339C51.1489 7.10363 52.6684 7.4413 53.8925 8.11665C55.1271 8.79199 56.0609 9.72059 56.6941 10.9024C57.3272 12.0843 57.6438 13.4244 57.6438 14.9228C57.6438 16.4318 57.3219 17.7772 56.6783 18.9591C56.0451 20.1304 55.106 21.0537 53.8608 21.729C52.6156 22.3938 51.0856 22.7262 49.2706 22.7262H43.4141V19.2123H48.6849C49.7507 19.2123 50.6213 19.0329 51.2966 18.6742C51.9825 18.3048 52.4837 17.7983 52.8003 17.1546C53.1274 16.5004 53.291 15.7565 53.291 14.9228C53.291 14.0787 53.1274 13.34 52.8003 12.7069C52.4837 12.0632 51.9825 11.5672 51.2966 11.219C50.6213 10.8602 49.7454 10.6808 48.6691 10.6808H44.7595V30.6879H40.4858Z" fill="#031519"/>
<path d="M59.9706 30.6879V12.9918H64.0068V15.9675H64.1967C64.5133 14.9334 65.0673 14.142 65.8587 13.5933C66.6501 13.034 67.5523 12.7544 68.5654 12.7544C68.7869 12.7544 69.0402 12.7649 69.3251 12.786C69.6206 12.8071 69.8633 12.8335 70.0532 12.8652V16.6956C69.8738 16.6323 69.5942 16.5795 69.2143 16.5373C68.8344 16.4951 68.4704 16.474 68.1222 16.474C67.3518 16.474 66.6659 16.6376 66.0645 16.9647C65.463 17.2918 64.9881 17.7403 64.6399 18.3101C64.3022 18.8799 64.1334 19.5447 64.1334 20.3045V30.6879H59.9706Z" fill="#031519"/>
<path d="M78.6005 31.0361C76.87 31.0361 75.3715 30.6562 74.1053 29.8965C72.839 29.1367 71.8577 28.0709 71.1612 26.6991C70.4753 25.3274 70.1324 23.734 70.1324 21.919C70.1324 20.0934 70.4753 18.4948 71.1612 17.123C71.8577 15.7406 72.839 14.6696 74.1053 13.9098C75.3715 13.1501 76.87 12.7702 78.6005 12.7702C80.3311 12.7702 81.8295 13.1501 83.0958 13.9098C84.3621 14.6696 85.3434 15.7406 86.0399 17.123C86.7363 18.4948 87.0845 20.0934 87.0845 21.919C87.0845 23.734 86.7363 25.3274 86.0399 26.6991C85.3434 28.0709 84.3621 29.1367 83.0958 29.8965C81.8295 30.6562 80.3311 31.0361 78.6005 31.0361ZM78.6005 27.6805C79.5608 27.6805 80.3522 27.4272 80.9748 26.9207C81.5974 26.4037 82.0617 25.7072 82.3677 24.8314C82.6842 23.9556 82.8425 22.9848 82.8425 21.919C82.8425 20.8321 82.6842 19.8507 82.3677 18.9749C82.0617 18.0991 81.5974 17.4079 80.9748 16.9014C80.3522 16.3843 79.5608 16.1258 78.6005 16.1258C77.6614 16.1258 76.8752 16.3843 76.2421 16.9014C75.609 17.4079 75.1341 18.0991 74.8176 18.9749C74.5115 19.8507 74.3585 20.8321 74.3585 21.919C74.3585 22.9848 74.5115 23.9556 74.8176 24.8314C75.1341 25.7072 75.609 26.4037 76.2421 26.9207C76.8752 27.4272 77.6614 27.6805 78.6005 27.6805Z" fill="#031519"/>
<path d="M98.3702 12.9918V16.2208H87.9393V12.9918H98.3702ZM90.5351 30.6879V11.3298C90.5351 10.1374 90.7831 9.14549 91.2791 8.35407C91.775 7.56265 92.4398 6.97173 93.2734 6.5813C94.1176 6.19086 95.0462 5.99565 96.0592 5.99565C96.7873 5.99565 97.431 6.05368 97.9903 6.16976C98.5601 6.28583 98.9769 6.39136 99.2407 6.48633L98.386 9.71531C98.2172 9.652 98.0008 9.59396 97.737 9.5412C97.4732 9.47789 97.1725 9.44623 96.8348 9.44623C96.0645 9.44623 95.5105 9.63617 95.1728 10.0161C94.8457 10.3959 94.6821 10.9341 94.6821 11.6305V30.6879H90.5351Z" fill="#031519"/>
<path d="M100.46 30.6879V12.9918H104.622V30.6879H100.46ZM102.549 10.5067C101.884 10.5067 101.314 10.2851 100.839 9.84194C100.365 9.39874 100.127 8.86586 100.127 8.24327C100.127 7.61014 100.365 7.07197 100.839 6.62878C101.314 6.18559 101.884 5.96399 102.549 5.96399C103.203 5.96399 103.768 6.18559 104.242 6.62878C104.717 7.07197 104.955 7.60486 104.955 8.22745C104.955 8.86058 104.717 9.39874 104.242 9.84194C103.768 10.2851 103.203 10.5067 102.549 10.5067Z" fill="#031519"/>
<path d="M116.525 12.9918V16.2208H106.379V12.9918H116.525ZM108.864 8.78144H113.027V25.3696C113.027 26.066 113.18 26.5831 113.486 26.9207C113.792 27.2479 114.278 27.4114 114.942 27.4114C115.122 27.4114 115.322 27.3956 115.544 27.3639C115.766 27.3323 115.966 27.2953 116.145 27.2531L116.858 30.5138C116.414 30.651 115.966 30.7512 115.512 30.8145C115.059 30.8884 114.605 30.9253 114.151 30.9253C112.505 30.9253 111.212 30.4927 110.273 29.6274C109.334 28.7516 108.864 27.5592 108.864 26.0502V8.78144Z" fill="#031519"/>
<path d="M119.374 30.6879V7.10363H128.222C130.037 7.10363 131.557 7.4413 132.781 8.11665C134.016 8.79199 134.95 9.72059 135.583 10.9024C136.216 12.0843 136.532 13.4244 136.532 14.9228C136.532 16.4318 136.21 17.7772 135.567 18.9591C134.934 20.1304 133.995 21.0537 132.749 21.729C131.504 22.3938 129.974 22.7262 128.159 22.7262H122.303V19.2123H127.573C128.639 19.2123 129.51 19.0329 130.185 18.6742C130.871 18.3048 131.372 17.7983 131.689 17.1546C132.016 16.5004 132.18 15.7565 132.18 14.9228C132.18 14.0787 132.016 13.34 131.689 12.7069C131.372 12.0632 130.871 11.5672 130.185 11.219C129.51 10.8602 128.634 10.6808 127.558 10.6808H123.648V30.6879H119.374Z" fill="#031519"/>
<path d="M146.314 31.0361C144.584 31.0361 143.085 30.6562 141.819 29.8965C140.553 29.1367 139.571 28.0709 138.875 26.6991C138.189 25.3274 137.846 23.734 137.846 21.919C137.846 20.0934 138.189 18.4948 138.875 17.123C139.571 15.7406 140.553 14.6696 141.819 13.9098C143.085 13.1501 144.584 12.7702 146.314 12.7702C148.045 12.7702 149.543 13.1501 150.81 13.9098C152.076 14.6696 153.057 15.7406 153.754 17.123C154.45 18.4948 154.798 20.0934 154.798 21.919C154.798 23.734 154.45 25.3274 153.754 26.6991C153.057 28.0709 152.076 29.1367 150.81 29.8965C149.543 30.6562 148.045 31.0361 146.314 31.0361ZM146.314 27.6805C147.275 27.6805 148.066 27.4272 148.689 26.9207C149.311 26.4037 149.775 25.7072 150.081 24.8314C150.398 23.9556 150.556 22.9848 150.556 21.919C150.556 20.8321 150.398 19.8507 150.081 18.9749C149.775 18.0991 149.311 17.4079 148.689 16.9014C148.066 16.3843 147.275 16.1258 146.314 16.1258C145.375 16.1258 144.589 16.3843 143.956 16.9014C143.323 17.4079 142.848 18.0991 142.531 18.9749C142.225 19.8507 142.072 20.8321 142.072 21.919C142.072 22.9848 142.225 23.9556 142.531 24.8314C142.848 25.7072 143.323 26.4037 143.956 26.9207C144.589 27.4272 145.375 27.6805 146.314 27.6805Z" fill="#031519"/>
<path d="M163.615 31.0045C162.232 31.0045 160.987 30.651 159.879 29.944C158.782 29.2264 157.916 28.187 157.283 26.8258C156.65 25.4645 156.334 23.8131 156.334 21.8715C156.334 19.8982 156.655 18.2362 157.299 16.8856C157.953 15.5349 158.829 14.5113 159.927 13.8149C161.024 13.1184 162.253 12.7702 163.615 12.7702C164.659 12.7702 165.514 12.9443 166.179 13.2925C166.844 13.6407 167.371 14.0628 167.762 14.5588C168.163 15.0442 168.469 15.4979 168.68 15.92H168.854V7.10363H173.001V30.6879H168.933V27.8863H168.68C168.458 28.3189 168.147 28.7779 167.746 29.2633C167.345 29.7382 166.812 30.1497 166.147 30.498C165.482 30.8356 164.638 31.0045 163.615 31.0045ZM164.77 27.5855C165.657 27.5855 166.406 27.3481 167.018 26.8733C167.64 26.3879 168.115 25.7178 168.442 24.8631C168.769 23.9978 168.933 22.9953 168.933 21.8557C168.933 20.7055 168.769 19.7083 168.442 18.8641C168.126 18.0094 167.656 17.3499 167.034 16.8856C166.422 16.4213 165.667 16.1891 164.77 16.1891C163.852 16.1891 163.082 16.4318 162.459 16.9172C161.837 17.4026 161.367 18.0727 161.05 18.9274C160.744 19.7822 160.591 20.7582 160.591 21.8557C160.591 22.9531 160.75 23.9345 161.066 24.7997C161.383 25.665 161.847 26.3456 162.459 26.8416C163.082 27.3376 163.852 27.5855 164.77 27.5855Z" fill="#031519"/>
</svg>
